<mxfile host="app.diagrams.net" agent="Mozilla/5.0 (Windows NT 10.0; Win64; x64) AppleWebKit/537.36 (KHTML, like Gecko) Chrome/130.0.0.0 Safari/537.36" version="24.8.4">
  <diagram name="Pagina-1" id="qZPgBpaYtGW_UAOBJaA-">
    <mxGraphModel dx="1195" dy="615" grid="1" gridSize="10" guides="1" tooltips="1" connect="1" arrows="1" fold="1" page="1" pageScale="1" pageWidth="827" pageHeight="1169" math="0" shadow="0">
      <root>
        <mxCell id="0" />
        <mxCell id="1" parent="0" />
        <mxCell id="uEPgSjEuAT5WGxWK_Wyk-1" value="Parte AI" style="shape=umlActor;verticalLabelPosition=bottom;verticalAlign=top;html=1;outlineConnect=0;" parent="1" vertex="1">
          <mxGeometry x="40" y="255" width="40" height="80" as="geometry" />
        </mxCell>
        <mxCell id="uEPgSjEuAT5WGxWK_Wyk-4" value="" style="shape=umlActor;verticalLabelPosition=bottom;verticalAlign=top;html=1;outlineConnect=0;" parent="1" vertex="1">
          <mxGeometry x="1150" y="255" width="40" height="80" as="geometry" />
        </mxCell>
        <mxCell id="uEPgSjEuAT5WGxWK_Wyk-6" value="Ricevi dati da parte AI&lt;div&gt;tramite broker mqtt&lt;/div&gt;" style="ellipse;whiteSpace=wrap;html=1;" parent="1" vertex="1">
          <mxGeometry x="240" y="245" width="120" height="80" as="geometry" />
        </mxCell>
        <mxCell id="uEPgSjEuAT5WGxWK_Wyk-8" value="Filtra possibili pacchetti stesso id macchina" style="ellipse;whiteSpace=wrap;html=1;" parent="1" vertex="1">
          <mxGeometry x="710" y="505" width="120" height="80" as="geometry" />
        </mxCell>
        <mxCell id="uEPgSjEuAT5WGxWK_Wyk-9" value="Trasmetti pacchetti radio in broadcast" style="ellipse;whiteSpace=wrap;html=1;" parent="1" vertex="1">
          <mxGeometry x="710" y="245" width="120" height="80" as="geometry" />
        </mxCell>
        <mxCell id="uEPgSjEuAT5WGxWK_Wyk-11" value="Ricevi dati da parte broadcast" style="ellipse;whiteSpace=wrap;html=1;" parent="1" vertex="1">
          <mxGeometry x="870" y="505" width="120" height="80" as="geometry" />
        </mxCell>
        <mxCell id="uEPgSjEuAT5WGxWK_Wyk-15" value="Traduci pacchetti da ethernet a ESP32 LORA out" style="ellipse;whiteSpace=wrap;html=1;" parent="1" vertex="1">
          <mxGeometry x="390" y="245" width="120" height="80" as="geometry" />
        </mxCell>
        <mxCell id="uEPgSjEuAT5WGxWK_Wyk-18" value="" style="endArrow=none;html=1;rounded=0;entryX=1;entryY=0.5;entryDx=0;entryDy=0;exitX=0;exitY=0.3333333333333333;exitDx=0;exitDy=0;exitPerimeter=0;strokeColor=#6c8ebf;strokeWidth=3;fillColor=#dae8fc;" parent="1" source="uEPgSjEuAT5WGxWK_Wyk-4" target="uEPgSjEuAT5WGxWK_Wyk-11" edge="1">
          <mxGeometry width="50" height="50" relative="1" as="geometry">
            <mxPoint x="990" y="292" as="sourcePoint" />
            <mxPoint x="590" y="575" as="targetPoint" />
          </mxGeometry>
        </mxCell>
        <mxCell id="uEPgSjEuAT5WGxWK_Wyk-20" value="" style="endArrow=none;html=1;rounded=0;entryX=0;entryY=0.5;entryDx=0;entryDy=0;exitX=1;exitY=0.3333333333333333;exitDx=0;exitDy=0;strokeColor=#FF4242;strokeWidth=3;exitPerimeter=0;" parent="1" source="uEPgSjEuAT5WGxWK_Wyk-1" target="uEPgSjEuAT5WGxWK_Wyk-6" edge="1">
          <mxGeometry width="50" height="50" relative="1" as="geometry">
            <mxPoint x="320" y="285" as="sourcePoint" />
            <mxPoint x="210" y="725" as="targetPoint" />
            <Array as="points" />
          </mxGeometry>
        </mxCell>
        <mxCell id="uEPgSjEuAT5WGxWK_Wyk-21" value="" style="endArrow=none;html=1;rounded=0;entryX=0;entryY=0.5;entryDx=0;entryDy=0;exitX=1;exitY=0.5;exitDx=0;exitDy=0;" parent="1" source="uEPgSjEuAT5WGxWK_Wyk-6" target="uEPgSjEuAT5WGxWK_Wyk-15" edge="1">
          <mxGeometry width="50" height="50" relative="1" as="geometry">
            <mxPoint x="290" y="835" as="sourcePoint" />
            <mxPoint x="340" y="785" as="targetPoint" />
          </mxGeometry>
        </mxCell>
        <mxCell id="uEPgSjEuAT5WGxWK_Wyk-22" value="" style="endArrow=none;html=1;rounded=0;exitX=0;exitY=0.5;exitDx=0;exitDy=0;entryX=1;entryY=0.5;entryDx=0;entryDy=0;strokeColor=#828200;strokeWidth=3;" parent="1" source="uEPgSjEuAT5WGxWK_Wyk-9" target="uEPgSjEuAT5WGxWK_Wyk-15" edge="1">
          <mxGeometry width="50" height="50" relative="1" as="geometry">
            <mxPoint x="380" y="615" as="sourcePoint" />
            <mxPoint x="530" y="705" as="targetPoint" />
          </mxGeometry>
        </mxCell>
        <mxCell id="uEPgSjEuAT5WGxWK_Wyk-23" value="" style="endArrow=none;html=1;rounded=0;entryX=1;entryY=0.5;entryDx=0;entryDy=0;exitX=0;exitY=0.3333333333333333;exitDx=0;exitDy=0;exitPerimeter=0;strokeColor=#6c8ebf;strokeWidth=3;fillColor=#dae8fc;" parent="1" source="uEPgSjEuAT5WGxWK_Wyk-4" target="uEPgSjEuAT5WGxWK_Wyk-9" edge="1">
          <mxGeometry width="50" height="50" relative="1" as="geometry">
            <mxPoint x="540" y="625" as="sourcePoint" />
            <mxPoint x="590" y="575" as="targetPoint" />
          </mxGeometry>
        </mxCell>
        <mxCell id="uEPgSjEuAT5WGxWK_Wyk-26" value="" style="endArrow=none;html=1;rounded=0;exitX=1;exitY=0.5;exitDx=0;exitDy=0;entryX=0;entryY=0.5;entryDx=0;entryDy=0;strokeColor=#080604;strokeWidth=1;" parent="1" source="Jv-4UGroFaR8sKnCl-xw-4" target="uEPgSjEuAT5WGxWK_Wyk-27" edge="1">
          <mxGeometry width="50" height="50" relative="1" as="geometry">
            <mxPoint x="380" y="625" as="sourcePoint" />
            <mxPoint x="240" y="585" as="targetPoint" />
          </mxGeometry>
        </mxCell>
        <mxCell id="uEPgSjEuAT5WGxWK_Wyk-27" value="Traduci pacchetti da ESP32 LORA in a ethernet" style="ellipse;whiteSpace=wrap;html=1;" parent="1" vertex="1">
          <mxGeometry x="380" y="505" width="120" height="80" as="geometry" />
        </mxCell>
        <mxCell id="uEPgSjEuAT5WGxWK_Wyk-28" value="" style="endArrow=none;html=1;rounded=0;exitX=0;exitY=0.5;exitDx=0;exitDy=0;entryX=1;entryY=0.5;entryDx=0;entryDy=0;strokeColor=#828200;strokeWidth=3;" parent="1" source="uEPgSjEuAT5WGxWK_Wyk-8" target="uEPgSjEuAT5WGxWK_Wyk-27" edge="1">
          <mxGeometry width="50" height="50" relative="1" as="geometry">
            <mxPoint x="380" y="545" as="sourcePoint" />
            <mxPoint x="430" y="495" as="targetPoint" />
          </mxGeometry>
        </mxCell>
        <mxCell id="uEPgSjEuAT5WGxWK_Wyk-29" value="" style="endArrow=none;html=1;rounded=0;entryX=0;entryY=0.5;entryDx=0;entryDy=0;exitX=1;exitY=0.5;exitDx=0;exitDy=0;" parent="1" source="uEPgSjEuAT5WGxWK_Wyk-8" target="uEPgSjEuAT5WGxWK_Wyk-11" edge="1">
          <mxGeometry width="50" height="50" relative="1" as="geometry">
            <mxPoint x="870" y="565" as="sourcePoint" />
            <mxPoint x="720" y="555" as="targetPoint" />
          </mxGeometry>
        </mxCell>
        <mxCell id="uEPgSjEuAT5WGxWK_Wyk-31" value="" style="rounded=1;whiteSpace=wrap;html=1;fillColor=none;strokeWidth=2;" parent="1" vertex="1">
          <mxGeometry x="170" y="235" width="450" height="360" as="geometry" />
        </mxCell>
        <mxCell id="uEPgSjEuAT5WGxWK_Wyk-32" value="&lt;h1 style=&quot;margin-top: 0px;&quot;&gt;Scheda ESP32 Ethernet&lt;/h1&gt;" style="text;html=1;whiteSpace=wrap;overflow=hidden;rounded=0;" parent="1" vertex="1">
          <mxGeometry x="300" y="160" width="180" height="70" as="geometry" />
        </mxCell>
        <mxCell id="uEPgSjEuAT5WGxWK_Wyk-33" value="" style="rounded=1;whiteSpace=wrap;html=1;fillColor=none;strokeWidth=2;" parent="1" vertex="1">
          <mxGeometry x="700" y="235" width="140" height="100" as="geometry" />
        </mxCell>
        <mxCell id="uEPgSjEuAT5WGxWK_Wyk-35" value="&lt;h1 style=&quot;margin-top: 0px;&quot;&gt;Scheda ESP32 LORA out&lt;/h1&gt;" style="text;html=1;whiteSpace=wrap;overflow=hidden;rounded=0;" parent="1" vertex="1">
          <mxGeometry x="700" y="165" width="180" height="70" as="geometry" />
        </mxCell>
        <mxCell id="uEPgSjEuAT5WGxWK_Wyk-36" value="" style="rounded=1;whiteSpace=wrap;html=1;fillColor=none;strokeWidth=2;" parent="1" vertex="1">
          <mxGeometry x="700" y="495" width="310" height="105" as="geometry" />
        </mxCell>
        <mxCell id="uEPgSjEuAT5WGxWK_Wyk-37" value="&lt;h1 style=&quot;margin-top: 0px;&quot;&gt;Scheda ESP32 LORA in&lt;/h1&gt;" style="text;html=1;whiteSpace=wrap;overflow=hidden;rounded=0;" parent="1" vertex="1">
          <mxGeometry x="700" y="425" width="180" height="70" as="geometry" />
        </mxCell>
        <mxCell id="uEPgSjEuAT5WGxWK_Wyk-39" value="&lt;h1 style=&quot;margin-top: 0px;&quot;&gt;Legenda connessioni&lt;/h1&gt;&lt;p style=&quot;&quot;&gt;Rosso: cavo ethernet;&lt;/p&gt;&lt;p&gt;Blu: onde radio;&lt;/p&gt;&lt;p&gt;Giallo: seriale.&lt;/p&gt;" style="text;html=1;whiteSpace=wrap;overflow=hidden;rounded=1;strokeColor=default;strokeWidth=2;align=center;" parent="1" vertex="1">
          <mxGeometry x="10" y="30" width="180" height="160" as="geometry" />
        </mxCell>
        <mxCell id="Jv-4UGroFaR8sKnCl-xw-3" value="HOST server mqtt" style="ellipse;whiteSpace=wrap;html=1;" parent="1" vertex="1">
          <mxGeometry x="310" y="370" width="120" height="80" as="geometry" />
        </mxCell>
        <mxCell id="Jv-4UGroFaR8sKnCl-xw-5" value="" style="endArrow=none;html=1;rounded=0;exitX=1;exitY=0.3333333333333333;exitDx=0;exitDy=0;exitPerimeter=0;entryX=0;entryY=0.5;entryDx=0;entryDy=0;strokeColor=#FF4242;strokeWidth=3;" parent="1" source="uEPgSjEuAT5WGxWK_Wyk-1" target="Jv-4UGroFaR8sKnCl-xw-4" edge="1">
          <mxGeometry width="50" height="50" relative="1" as="geometry">
            <mxPoint x="80" y="282" as="sourcePoint" />
            <mxPoint x="380" y="545" as="targetPoint" />
          </mxGeometry>
        </mxCell>
        <mxCell id="Jv-4UGroFaR8sKnCl-xw-4" value="send dati tramite broker mqtt" style="ellipse;whiteSpace=wrap;html=1;" parent="1" vertex="1">
          <mxGeometry x="240" y="505" width="120" height="80" as="geometry" />
        </mxCell>
        <mxCell id="Jv-4UGroFaR8sKnCl-xw-6" value="LORA WAN" style="text;html=1;align=center;verticalAlign=middle;resizable=0;points=[];autosize=1;strokeColor=none;fillColor=none;" parent="1" vertex="1">
          <mxGeometry x="1125" y="335" width="90" height="30" as="geometry" />
        </mxCell>
      </root>
    </mxGraphModel>
  </diagram>
</mxfile>
